#!OML:ASF X:\für Bonn\!DataBase\2005_08_12_Daniel\c3d\Daniel.ASF
:FULLY-SPECIFIED
:DEGREES
170
root 0.309803 22.1153 0.0548082 -13.1255 -75.9788 11.911
lowerback 7.48087 1.25078 -2.91182
upperback -12.6684 -0.372808 -6.48503
thorax -18.905 -0.714649 -5.79808
lowerneck 3.97204 -6.73527 -0.805941
upperneck 13.5904 -9.45943 -0.0969928
head 3.77162 -4.90239 -0.102913
rclavicle 1.59028e-014 -4.77083e-015
rhumerus 79.9191 -12.262 -67.623
rradius 62.3571
rwrist 40.305
rhand -65.697 250.072
rfingers 7.12502
rthumb -37.5567 444.009
lclavicle 1.59028e-014 -4.77083e-015
lhumerus -124.547 217.326 -103.419
lradius 94.1073
lwrist 44.41
lhand -21.6012 -6.21645
lfingers 7.12502
lthumb 4.79388 23.7093
rfemur 1.81173 4.35311 16.7081
rtibia 33.8231
rfoot 384.563 -22.4634
rtoes -1.98189
lfemur -13.2777 -20.1177 -18.3047
ltibia 37.5622
lfoot 25.6949 12.4691
ltoes 0.548151
171
root 0.283004 22.2515 0.0485967 -13.0545 -75.7394 11.2716
lowerback 7.46104 1.23079 -2.92034
upperback -12.3442 -0.343903 -6.46715
thorax -18.4523 -0.671057 -5.74856
lowerneck 4.29121 -6.83405 -0.617078
upperneck 13.3411 -9.59066 -0.0541277
head 3.61724 -4.95879 -0.101428
rclavicle -4.37326e-014 5.88403e-014
rhumerus 80.9888 -12.2406 -68.0441
rradius 60.3579
rwrist 39.8434
rhand -65.8516 251.206
rfingers 7.12502
rthumb -37.7028 442.915
lclavicle -4.37326e-014 5.88403e-014
lhumerus -125.619 217.584 -102.714
lradius 95.0733
lwrist 44.286
lhand -21.7884 -5.78639
lfingers 7.12502
lthumb 4.61311 24.1434
rfemur 2.48962 3.7698 16.9237
rtibia 34.2806
rfoot 384.881 -22.0079
rtoes -1.28127
lfemur -12.6054 -19.9378 -18.3471
ltibia 37.9347
lfoot 26.7075 12.0662
ltoes 1.07072
172
root 0.257569 22.3764 0.0439658 -12.7175 -75.5262 10.3962
lowerback 7.37068 1.20704 -2.86655
upperback -11.9949 -0.295087 -6.41369
thorax -17.9196 -0.620209 -5.6915
lowerneck 4.51332 -6.92507 -0.443298
upperneck 13.1636 -9.7109 -0.0162912
head 3.50742 -5.01039 -0.104725
rclavicle -4.77083e-015 -6.04305e-014
rhumerus 82.0017 -12.1628 -68.4924
rradius 58.0257
rwrist 39.235
rhand -66.1265 253.757
rfingers 7.12502
rthumb -37.9625 440.434
lclavicle -4.77083e-015 -6.04305e-014
lhumerus -126.532 217.778 -102.126
lradius 95.7986
lwrist 44.2042
lhand -21.9559 -5.35662
lfingers 7.12502
lthumb 4.45137 24.5766
rfemur 3.20682 3.39137 17.2399
rtibia 34.4517
rfoot 384.795 -21.7205
rtoes -1.46347
lfemur -12.0548 -19.8038 -18.2799
ltibia 38.4144
lfoot 27.4758 11.6206
ltoes 1.53972
173
root 0.23366 22.487 0.0394241 -12.3606 -75.3574 9.51077
lowerback 7.30244 1.19096 -2.78038
upperback -11.6609 -0.237948 -6.36853
thorax -17.4281 -0.573434 -5.66786
lowerneck 4.73613 -7.00372 -0.270589
upperneck 13.0765 -9.82463 0.0723883
head 3.43296 -5.05899 -0.0940012
rclavicle 1.08934e-013 -3.18055e-014
rhumerus 82.9024 -12.0123 -69.1155
rradius 55.3707
rwrist 38.6781
rhand -66.605 258.499
rfingers 7.12502
rthumb -38.4142 435.816
lclavicle 1.08934e-013 -3.18055e-014
lhumerus -127.421 217.948 -101.603
lradius 96.264
lwrist 44.1936
lhand -21.9603 -4.94528
lfingers 7.12502
lthumb 4.44714 24.988
rfemur 3.974 3.1889 17.6011
rtibia 34.3745
rfoot 384.446 -21.5764
rtoes -2.24541
lfemur -11.5784 -19.6703 -18.1716
ltibia 38.9687
lfoot 28.0533 11.1491
ltoes 1.74045
174
root 0.210389 22.5858 0.0353258 -11.8985 -75.2154 8.52503
lowerback 7.2888 1.16909 -2.66195
upperback -11.3645 -0.188824 -6.29294
thorax -17.0267 -0.534933 -5.63192
lowerneck 5.00449 -7.06852 -0.0830423
upperneck 13.0752 -9.92029 0.120923
head 3.37743 -5.10139 -0.0983859
rclavicle 4.69132e-014 -2.22639e-014
rhumerus 83.7492 -11.7882 -69.7241
rradius 52.3169
rwrist 37.9744
rhand -67.0403 265.914
rfingers 7.12502
rthumb -38.8248 428.516
lclavicle 4.69132e-014 -2.22639e-014
lhumerus -128.343 218.053 -101.091
lradius 96.5305
lwrist 44.2292
lhand -21.9281 -4.61352
lfingers 7.12502
lthumb 4.47816 25.3191
rfemur 4.79378 3.09425 18.0204
rtibia 34.0975
rfoot 383.943 -21.6028
rtoes -2.68768
lfemur -11.1645 -19.5413 -18.0021
ltibia 39.5632
lfoot 28.542 10.6331
ltoes 2.07565
175
root 0.186403 22.6748 0.0320179 -11.382 -75.0958 7.5141
lowerback 7.26151 1.15115 -2.52848
upperback -11.0785 -0.131685 -6.20254
thorax -16.6322 -0.493886 -5.59009
lowerneck 5.28309 -7.11803 0.0527591
upperneck 13.1445 -10.0047 0.214105
head 3.35063 -5.1403 -0.0817403
rclavicle -2.22639e-014 -4.13472e-014
rhumerus 84.6709 -11.5619 -70.3325
rradius 48.818
rwrist 37.2185
rhand -67.2214 443.763
rfingers 7.12502
rthumb -38.9956 418.242
lclavicle -2.22639e-014 -4.13472e-014
lhumerus -129.17 218.087 -100.617
lradius 96.6254
lwrist 44.3303
lhand -21.868 -4.18985
lfingers 7.12502
lthumb 4.53624 25.7416
rfemur 5.60558 2.95488 18.4045
rtibia 33.6972
rfoot 383.369 -21.6733
rtoes -3.21152
lfemur -10.8235 -19.4073 -17.7937
ltibia 40.1496
lfoot 28.9936 10.0649
ltoes 2.06932
176
root 0.163086 22.7548 0.0298316 -10.7504 -75.0377 6.43487
lowerback 7.23387 1.15258 -2.3093
upperback -10.8186 -0.0461121 -6.14709
thorax -16.2725 -0.455829 -5.64633
lowerneck 5.44224 -7.17325 0.301871
upperneck 13.3914 -10.1014 0.281494
head 3.40016 -5.18146 -0.101986
rclavicle -6.36111e-015 -6.20208e-014
rhumerus 85.6443 -11.3636 -71.1465
rradius 45.0495
rwrist 36.6147
rhand -66.8343 431.093
rfingers 7.12502
rthumb -38.6305 405.468
lclavicle -6.36111e-015 -6.20208e-014
lhumerus -129.909 218.121 -100.3
lradius 96.6017
lwrist 44.5255
lhand -21.7622 -3.80906
lfingers 7.12502
lthumb 4.63835 26.1202
rfemur 6.33566 2.72651 18.7448
rtibia 33.2437
rfoot 382.912 -21.6206
rtoes -4.28006
lfemur -10.5599 -19.2374 -17.5236
ltibia 40.7006
lfoot 29.4779 9.1339
ltoes 1.35352
177
root 0.140358 22.8242 0.027484 -10.0416 -75.0131 5.30905
lowerback 7.19466 1.14748 -2.09447
upperback -10.5559 0.0372368 -6.04301
thorax -15.9032 -0.41234 -5.64308
lowerneck 5.46288 -7.19654 0.396767
upperneck 13.734 -10.1693 0.401569
head 3.52054 -5.21164 -0.0897823
rclavicle 9.54166e-015 -2.54444e-014
rhumerus 86.7379 -11.1279 -72.0086
rradius 41.1993
rwrist 35.9583
rhand -65.3944 417.136
rfingers 7.12502
rthumb -37.2707 391.142
lclavicle 9.54166e-015 -2.54444e-014
lhumerus -130.6 218.048 -100.002
lradius 96.4987
lwrist 44.6351
lhand -21.6148 -3.51534
lfingers 7.12502
lthumb 4.78073 26.4107
rfemur 6.98289 2.46983 19.0579
rtibia 32.8089
rfoot 382.47 -21.7029
rtoes -5.96864
lfemur -10.3489 -19.0322 -17.2089
ltibia 41.189
lfoot 29.8261 8.44291
ltoes 0.639419
178
root 0.121076 22.8836 0.0265241 -9.25174 -75.0332 4.15351
lowerback 7.16353 1.1513 -1.83973
upperback -10.3348 0.130662 -5.9408
thorax -15.593 -0.371633 -5.67103
lowerneck 5.5468 -7.21287 0.459422
upperneck 14.0066 -10.229 0.549737
head 3.60899 -5.23847 -0.0583776
rclavicle 9.54166e-015 -1.59028e-015
rhumerus 87.8825 -10.867 -73.1113
rradius 37.3589
rwrist 35.6418
rhand -62.5987 403.702
rfingers 7.12502
rthumb -34.6222 377.058
lclavicle 9.54166e-015 -1.59028e-015
lhumerus -131.372 217.943 -99.6747
lradius 96.361
lwrist 44.7673
lhand -21.2809 -3.33708
lfingers 7.12502
lthumb 5.10309 26.5815
rfemur 7.50886 2.28274 19.3498
rtibia 32.4319
rfoot 381.889 -22.0957
rtoes -7.50776
lfemur -10.2104 -18.8398 -16.8693
ltibia 41.6343
lfoot 30.0532 7.87187
ltoes -0.00144762
179
root 0.104324 22.9303 0.0253028 -8.54645 -75.0847 3.14221
lowerback 7.11731 1.15962 -1.6196
upperback -10.1451 0.220208 -5.83482
thorax -15.3146 -0.330047 -5.67625
lowerneck 5.64255 -7.21618 0.470305
upperneck 14.2446 -10.2727 0.712967
head 3.68734 -5.25891 -0.0119548
rclavicle -1.35174e-014 5.08889e-014
rhumerus 89.0905 -10.582 -74.4039
rradius 33.6446
rwrist 35.6081
rhand -58.2175 392.358
rfingers 7.12502
rthumb -30.4533 364.854
lclavicle -1.35174e-014 5.08889e-014
lhumerus -132.234 217.803 -99.309
lradius 96.2927
lwrist 44.8557
lhand -20.842 -3.1644
lfingers 7.12502
lthumb 5.52689 26.7435
rfemur 7.90222 2.138 19.5975
rtibia 32.1318
rfoot 381.385 -22.6279
rtoes -8.57551
lfemur -10.1542 -18.5545 -16.5331
ltibia 42.0521
lfoot 30.2595 7.24323
ltoes -0.338224
180
root 0.0921155 22.9658 0.0254036 -7.65182 -75.1587 2.02186
lowerback 6.99845 1.17312 -1.34726
upperback -9.95375 0.325215 -5.7352
thorax -14.987 -0.286099 -5.71829
lowerneck 5.58069 -7.2239 0.479577
upperneck 14.5471 -10.3293 0.896444
head 3.81962 -5.28254 0.0321061
rclavicle -2.14687e-014 -3.65764e-014
rhumerus 90.3991 -10.3461 -75.8955
rradius 30.1427
rwrist 35.9027
rhand -52.3264 383.603
rfingers 7.12502
rthumb -24.8204 355.193
lclavicle -2.14687e-014 -3.65764e-014
lhumerus -133.055 217.652 -98.9596
lradius 96.2538
lwrist 44.7995
lhand -20.2394 -3.1095
lfingers 7.12502
lthumb 6.10865 26.7824
rfemur 8.11754 1.93027 19.8174
rtibia 31.9005
rfoot 381.071 -23.1044
rtoes -9.21754
lfemur -10.2369 -18.2855 -16.1486
ltibia 42.4781
lfoot 30.4294 6.67766
ltoes -0.338952
181
root 0.0830323 22.9889 0.0251319 -6.68267 -75.2774 0.915963
lowerback 6.80857 1.19646 -1.08971
upperback -9.81732 0.43547 -5.63528
thorax -14.6824 -0.240108 -5.75316
lowerneck 5.67947 -7.22318 0.490546
upperneck 14.7396 -10.3712 1.09704
head 3.8847 -5.30032 0.0924049
rclavicle -8.74653e-015 -4.6118e-014
rhumerus 91.6706 -10.0607 -77.6142
rradius 26.9006
rwrist 36.6611
rhand -45.3306 377.153
rfingers 7.12502
rthumb -18.1018 347.975
lclavicle -8.74653e-015 -4.6118e-014
lhumerus -133.844 217.463 -98.6267
lradius 96.2065
lwrist 44.74
lhand -19.4731 -2.99485
lfingers 7.12502
lthumb 6.84845 26.8744
rfemur 8.18771 1.86625 20.0207
rtibia 31.7454
rfoot 380.442 -24.0062
rtoes -8.48092
lfemur -10.4345 -18.0136 -15.7333
ltibia 42.9041
lfoot 30.5463 6.21545
ltoes -0.121103
182
root 0.0767381 23.0032 0.0255742 -5.70108 -75.4247 -0.111357
lowerback 6.52453 1.21549 -0.842327
upperback -9.6808 0.538294 -5.53879
thorax -14.3197 -0.195011 -5.78011
lowerneck 5.70707 -7.20337 0.529791
upperneck 14.9307 -10.3872 1.29999
head 3.96088 -5.30214 0.146478
rclavicle 1.43125e-014 -1.43125e-014
rhumerus 92.953 -9.72339 -79.6442
rradius 23.9896
rwrist 37.9489
rhand -37.6405 372.5
rfingers 7.12502
rthumb -10.6925 342.792
lclavicle 1.43125e-014 -1.43125e-014
lhumerus -134.322 217.184 -98.436
lradius 95.9743
lwrist 44.6669
lhand -18.6108 -2.92087
lfingers 7.12502
lthumb 7.68078 26.9196
rfemur 8.07941 1.82571 20.1826
rtibia 31.6844
rfoot 379.77 -24.9416
rtoes -7.30533
lfemur -10.7472 -17.7044 -15.312
ltibia 43.3117
lfoot 30.633 5.75493
ltoes -0.16108
183
root 0.0715934 23.0088 0.0270901 -4.74424 -75.5817 -1.07919
lowerback 6.23387 1.24728 -0.601349
upperback -9.57498 0.648925 -5.45917
thorax -13.9913 -0.148445 -5.82567
lowerneck 5.94685 -7.20104 0.614669
upperneck 14.9472 -10.4146 1.51
head 3.93316 -5.31053 0.210017
rclavicle 5.40694e-014 -4.45278e-014
rhumerus 94.1123 -9.32515 -81.9844
rradius 21.3638
rwrist 39.7886
rhand -29.9664 369.276
rfingers 7.12502
rthumb -3.28503 339.322
lclavicle 5.40694e-014 -4.45278e-014
lhumerus -134.712 216.92 -98.2838
lradius 95.699
lwrist 44.6168
lhand -17.664 -2.8697
lfingers 7.12502
lthumb 8.59459 26.9354
rfemur 7.8239 1.75605 20.2757
rtibia 31.7352
rfoot 379.091 -25.7618
rtoes -6.34449
lfemur -11.0754 -17.4594 -14.915
ltibia 43.6617
lfoot 30.6598 5.52697
ltoes -0.146584
